<svg id="visual" viewBox="0 0 900 600" width="900" height="600" xmlns="http://www.w3.org/2000/svg" xmlns:xlink="http://www.w3.org/1999/xlink" version="1.1"><rect x="0" y="0" width="900" height="600" fill="#fefefe"></rect><path d="M0 413L21.5 416.3C43 419.7 86 426.3 128.8 431.7C171.7 437 214.3 441 257.2 433.3C300 425.7 343 406.3 385.8 401.8C428.7 397.3 471.3 407.7 514.2 414.3C557 421 600 424 642.8 429.3C685.7 434.7 728.3 442.3 771.2 439.2C814 436 857 422 878.5 415L900 408L900 601L878.5 601C857 601 814 601 771.2 601C728.3 601 685.7 601 642.8 601C600 601 557 601 514.2 601C471.3 601 428.7 601 385.8 601C343 601 300 601 257.2 601C214.3 601 171.7 601 128.8 601C86 601 43 601 21.5 601L0 601Z" fill="#d4d4d5" stroke-linecap="round" stroke-linejoin="miter"></path></svg>